<svg width="330" height="69" viewBox="0 0 330 69" fill="none" xmlns="http://www.w3.org/2000/svg">
<path d="M43.0938 1.64553L52.7105 0L48.5339 26.3947L38.9172 28.0402L43.0938 1.64553Z" fill="url(#paint0_linear_4_317)"/>
<path d="M34.0749 3.18836L24.4582 4.83388L20.2816 31.2302L37.9699 28.2027L39.3047 19.7331L31.2315 21.1135L34.0749 3.18836Z" fill="url(#paint1_linear_4_317)"/>
<path d="M21.9675 5.2646L4.17324 8.30542L0 34.7001L18.0642 31.6129L19.2234 24.3978L10.8356 25.8345L11.2214 23.2477L18.6256 21.98L19.7136 15.1179L12.3094 16.3856L12.7301 13.8618L20.8447 12.4731L21.9675 5.2646Z" fill="url(#paint2_linear_4_317)"/>
<path fill-rule="evenodd" clip-rule="evenodd" d="M15.9312 36.5678L4.31402 38.5563L0.139104 64.9593L9.54548 63.3486L10.8703 54.879L11.0459 54.8492L13.9241 62.5979L25.0196 60.7005L25.0167 60.6955L34.4955 59.0733L35.7939 55.6447L43.059 54.4002L43.41 57.5487L53.5881 55.8071L48.3236 31.0231L37.69 32.8459L24.6662 60.0888L20.6327 53.1075C20.2629 52.5117 19.8112 52.1938 19.4216 51.9196C19.3681 51.8819 19.3157 51.845 19.2648 51.8084L19.2996 51.5979C23.0555 49.7966 24.8805 47.8495 25.5115 43.8591C26.5647 37.2008 21.893 35.547 15.9312 36.5678ZM12.5578 48.5206L11.8954 48.635L12.5926 44.1558L13.3296 44.0298C14.979 43.7464 16.3833 43.7448 16.0687 45.7748C15.7524 47.7368 14.1377 48.2505 12.5578 48.5206ZM42.3568 48.4296L41.9709 43.9653C41.8865 43.1107 41.8925 42.2193 41.8984 41.3414C41.8999 41.118 41.9014 40.895 41.9014 40.6742L41.5503 40.7339L38.4965 49.0891L42.3568 48.4296Z" fill="url(#paint3_linear_4_317)"/>
<path d="M72.8546 26.8272L62.9581 28.5208L54.494 55.6479L63.7944 54.0571L66.7074 42.5914C66.9873 41.5192 67.234 40.4222 67.4443 39.365L67.7606 39.3103C67.6585 40.379 67.7533 41.3508 67.8537 42.3799L67.865 42.4953L69.521 53.0777L75.1367 52.1166L80.8567 39.6252C81.1964 38.8474 81.4823 38.026 81.7617 37.2232C81.7996 37.1142 81.8373 37.0056 81.8751 36.8975L82.0507 36.866L81.067 51.1024L90.3674 49.5099L90.1918 23.8609L80.4013 25.5363L75.8024 36.4054C75.3266 37.4713 74.9955 38.5954 74.6771 39.6762C74.6431 39.7917 74.6092 39.9068 74.5753 40.0212L74.3285 40.0626L72.8546 26.8272Z" fill="url(#paint4_linear_4_317)"/>
<path fill-rule="evenodd" clip-rule="evenodd" d="M120.479 31.5866C119.155 40.0578 111.775 46.2571 103.704 47.6392C95.632 49.0212 89.8772 45.0657 91.2103 36.5961C92.5352 28.2956 99.9874 21.7764 108.021 20.401C116.054 19.0256 121.813 23.2861 120.479 31.5866ZM100.897 35.0748C100.4 38.0875 102.125 39.8026 105.037 39.3038C107.948 38.805 110.3 36.3939 110.791 33.3813C111.212 30.584 109.703 28.5607 106.651 29.0827C103.599 29.6047 101.317 32.276 100.897 35.0748Z" fill="url(#paint5_linear_4_317)"/>
<path d="M124.095 34.9189L123.674 34.6173L119.527 42.5864C122.265 43.5823 125.984 43.8326 129.318 43.2609C135.039 42.2831 141.286 38.1751 142.303 31.8781C143.005 27.3972 140.408 25.7301 136.477 25.5164L134.372 25.4004C134.296 25.395 134.215 25.3909 134.13 25.3867C133.435 25.3518 132.527 25.3062 132.653 24.4343C132.829 23.3455 134.09 22.8268 134.933 22.6827C137.003 22.328 138.724 22.8931 140.198 23.7217L143.883 16.5182C141.531 15.388 138.865 15.1295 135.846 15.6465C130.091 16.6309 123.808 21.1117 122.826 27.3757C122.164 31.5102 124.979 33.1756 128.622 33.1971L130.517 33.2137C130.601 33.2163 130.688 33.2176 130.779 33.2189C131.596 33.2304 132.601 33.2446 132.411 34.3207C132.236 35.5022 130.657 36.1435 129.709 36.3092C127.498 36.687 125.603 35.9546 124.095 34.9189Z" fill="url(#paint6_linear_4_317)"/>
<path d="M68.3949 67.77L65.1275 68.3285L69.4216 59.3485L72.8364 58.7635L74.5273 66.7177L71.2582 67.2778L71.1456 66.2687L68.8122 66.668L68.3949 67.77ZM70.9204 64.3514L70.7962 62.9179C70.7614 62.5749 70.773 62.212 70.773 61.8624L70.6604 61.8806L69.68 64.5635L70.9204 64.3514Z" fill="#184554"/>
<path d="M76.5095 58.1355L79.5981 57.6068L78.6839 63.362L81.2773 62.9179L80.8484 65.6389L75.1682 66.61L76.5095 58.1355Z" fill="#184554"/>
<path d="M93.4857 58.5778C93.0568 58.2017 92.5037 57.915 91.8065 58.0326C90.8807 58.1984 90.013 59.0501 89.8673 59.9731C89.7215 60.8962 90.3972 61.4894 91.3212 61.332C92.0317 61.2093 92.6461 60.8083 93.2257 60.2399L92.6279 63.4299C92.0996 63.7497 90.9271 64.048 90.374 64.1441C87.9512 64.5584 86.3614 63.004 86.7456 60.5863C87.1282 58.1155 89.3953 55.8021 91.8794 55.3763C92.5466 55.2595 93.2291 55.2595 93.8964 55.3763L93.4857 58.5778Z" fill="#184554"/>
<path d="M103.538 57.6549C103.109 60.3759 100.743 62.3661 98.1508 62.8102C95.5591 63.2543 93.7093 61.9817 94.1382 59.264C94.5671 56.5993 96.9535 54.5064 99.5369 54.0639C102.12 53.6215 103.967 54.9903 103.538 57.6549ZM97.245 58.7751C97.0794 59.7429 97.6408 60.2931 98.5698 60.134C99.0364 60.0461 99.4645 59.8162 99.7955 59.4757C100.127 59.1352 100.345 58.7007 100.42 58.2316C100.554 57.3334 100.07 56.6838 99.0948 56.8512C98.6276 56.9451 98.2003 57.1797 97.8702 57.5236C97.5401 57.8675 97.3231 58.3042 97.2483 58.7751H97.245Z" fill="#184554"/>
<path d="M105.262 53.2154L108.225 52.7083L110.255 56.9323L110.344 56.9174C110.308 56.2108 110.338 55.5023 110.434 54.8012L110.83 52.2625L113.782 51.7571L112.441 60.2333L109.488 60.7387L107.478 56.75L107.388 56.7666C107.407 57.3202 107.38 57.8744 107.309 58.4237L106.87 61.1795L103.917 61.6849L105.262 53.2154Z" fill="#184554"/>
<path d="M120.892 53.8866C120.463 53.5121 119.911 53.2237 119.212 53.343C118.288 53.5087 117.421 54.3605 117.273 55.2835C117.126 56.2065 117.803 56.7998 118.727 56.6424C119.438 56.5197 120.052 56.1187 120.632 55.5503L120.036 58.737C119.506 59.0568 118.333 59.3551 117.78 59.4495C115.357 59.8655 113.767 58.3111 114.152 55.8933C114.534 53.4226 116.801 51.1092 119.285 50.6833C119.953 50.5665 120.636 50.5665 121.304 50.6833L120.892 53.8866Z" fill="#184554"/>
<path d="M122.482 50.2691L128.195 49.2914L127.836 51.6113L125.232 52.0554L125.096 52.8674L127.475 52.4598L127.125 54.6638L124.747 55.0697L124.623 55.8983L127.317 55.4376L126.945 57.7576L121.14 58.7519L122.482 50.2691Z" fill="#184554"/>
<path d="M134.14 48.2755L133.233 53.9843C133.087 54.826 132.687 55.6029 132.086 56.2102C131.486 56.8176 130.714 57.2263 129.874 57.3814C129.044 57.527 128.19 57.3523 127.484 56.8925L128.95 54.0936C129.041 54.4731 129.142 54.9222 129.626 54.8427C130.109 54.7631 130.257 54.1881 130.313 53.8285L131.115 48.7925L134.14 48.2755Z" fill="#184554"/>
<path d="M143.939 50.7414C143.512 53.4624 141.145 55.4526 138.552 55.8967C135.958 56.3408 134.112 55.0681 134.539 52.3504C134.968 49.6858 137.355 47.5928 139.938 47.1504C142.521 46.7079 144.368 48.0767 143.939 50.7414ZM137.646 51.8616C137.48 52.8293 138.04 53.3795 138.971 53.2204C139.437 53.1327 139.865 52.9028 140.196 52.5622C140.527 52.2217 140.745 51.7871 140.819 51.318C140.955 50.4199 140.47 49.7703 139.494 49.9377C139.027 50.0319 138.601 50.2667 138.271 50.6106C137.942 50.9545 137.725 51.391 137.651 51.8616H137.646Z" fill="#184554"/>
<path d="M198.806 28.1318C198.802 28.1282 198.798 28.1239 198.796 28.1189C198.794 28.114 198.793 28.1086 198.793 28.1032C198.793 28.0978 198.794 28.0925 198.796 28.0876C198.798 28.0826 198.802 28.0783 198.806 28.0747C199.284 27.6562 199.664 27.1384 199.92 26.5575C200.176 25.9767 200.301 25.3469 200.287 24.7126C200.287 21.7121 197.827 19.752 194.795 19.752H188.038C188.028 19.752 188.018 19.756 188.011 19.7632C188.004 19.7703 188 19.7799 188 19.79V37.0698C188 37.0799 188.004 37.0896 188.011 37.0967C188.018 37.1039 188.028 37.1079 188.038 37.1079H195.303C198.412 37.1079 200.922 35.1033 200.922 32.0331C200.939 31.2554 200.752 30.4869 200.381 29.8029C200.01 29.119 199.467 28.5431 198.806 28.1318ZM191.954 23.5073C191.955 23.4967 191.961 23.487 191.969 23.48C191.977 23.473 191.987 23.4692 191.998 23.4693H194.789C194.983 23.4599 195.178 23.4899 195.361 23.5577C195.543 23.6254 195.711 23.7294 195.852 23.8634C195.993 23.9974 196.106 24.1585 196.183 24.3372C196.261 24.5159 196.301 24.7084 196.301 24.903C196.307 25.1196 196.268 25.335 196.187 25.5363C196.107 25.7376 195.986 25.9204 195.833 26.0739C195.68 26.2275 195.497 26.3485 195.296 26.4296C195.094 26.5107 194.879 26.5503 194.661 26.5459H191.998C191.987 26.546 191.977 26.5422 191.969 26.5352C191.961 26.5282 191.955 26.5185 191.954 26.5078V23.5073ZM195.284 33.3906H191.998C191.987 33.3907 191.977 33.3869 191.969 33.3799C191.961 33.3729 191.955 33.3631 191.954 33.3525V30.1046C191.955 30.094 191.961 30.0843 191.969 30.0773C191.977 30.0703 191.987 30.0665 191.998 30.0666H195.284C195.726 30.0666 196.15 30.2417 196.462 30.5534C196.774 30.865 196.95 31.2878 196.95 31.7286C196.95 32.1694 196.774 32.5921 196.462 32.9037C196.15 33.2154 195.726 33.3906 195.284 33.3906Z" fill="#184554"/>
<path d="M212.351 19.752H207.342C207.336 19.7492 207.33 19.7477 207.323 19.7477C207.317 19.7477 207.31 19.7492 207.304 19.752L201.418 37.0318C201.414 37.0347 201.411 37.0385 201.409 37.0429C201.407 37.0473 201.405 37.0522 201.405 37.0571C201.405 37.062 201.407 37.0669 201.409 37.0713C201.411 37.0757 201.414 37.0795 201.418 37.0825H205.721L206.573 34.4055C206.585 34.4006 206.599 34.4006 206.611 34.4055H213.05L213.902 37.0825C213.914 37.0874 213.928 37.0874 213.94 37.0825H218.205C218.211 37.0828 218.218 37.0816 218.223 37.079C218.229 37.0764 218.234 37.0723 218.238 37.0673C218.242 37.0623 218.244 37.0564 218.245 37.0502C218.246 37.044 218.245 37.0377 218.243 37.0318L212.357 19.752C212.355 19.7519 212.353 19.7519 212.351 19.752ZM211.83 30.6628H207.863C207.857 30.6632 207.851 30.662 207.845 30.6594C207.839 30.6567 207.834 30.6527 207.831 30.6477C207.827 30.6426 207.824 30.6368 207.823 30.6306C207.823 30.6243 207.823 30.618 207.825 30.6121L209.808 24.4081C209.808 24.398 209.812 24.3883 209.82 24.3812C209.827 24.3741 209.836 24.37 209.847 24.37C209.857 24.37 209.866 24.3741 209.874 24.3812C209.881 24.3883 209.885 24.398 209.885 24.4081L211.868 30.6121C211.87 30.618 211.871 30.6243 211.87 30.6306C211.869 30.6368 211.866 30.6426 211.862 30.6477C211.859 30.6527 211.854 30.6567 211.848 30.6594C211.842 30.662 211.836 30.6632 211.83 30.6628Z" fill="#184554"/>
<path d="M229.519 30.7707C229.513 30.7637 229.51 30.7547 229.51 30.7453C229.51 30.7359 229.513 30.7269 229.519 30.7199C230.193 30.3936 230.794 29.9352 231.287 29.3722C231.779 28.8092 232.153 28.153 232.386 27.4427C232.619 26.7324 232.707 25.9824 232.643 25.2377C232.58 24.4929 232.367 23.7686 232.017 23.1077C231.448 22.0818 230.611 21.2295 229.594 20.6418C228.578 20.0541 227.42 19.7531 226.246 19.771H219.82C219.809 19.7709 219.798 19.7747 219.79 19.7817C219.782 19.7887 219.777 19.7984 219.775 19.8091V37.0888C219.777 37.0995 219.782 37.1091 219.79 37.1161C219.798 37.1231 219.809 37.127 219.82 37.1269H223.716C223.726 37.1269 223.736 37.1229 223.743 37.1158C223.75 37.1086 223.754 37.0989 223.754 37.0888V31.4621C223.754 31.452 223.758 31.4423 223.765 31.4352C223.772 31.428 223.782 31.424 223.792 31.424H225.616C225.622 31.4207 225.629 31.419 225.636 31.419C225.642 31.419 225.649 31.4207 225.655 31.424L228.909 37.0888H233.091C233.099 37.0898 233.106 37.0888 233.112 37.0859C233.119 37.0829 233.125 37.0782 233.129 37.0722C233.133 37.0663 233.135 37.0593 233.135 37.0521C233.135 37.0449 233.133 37.0379 233.13 37.0317L229.519 30.7707ZM226.742 27.9351H223.799C223.788 27.9351 223.779 27.9311 223.772 27.9239C223.764 27.9168 223.76 27.9072 223.76 27.8971V23.5073C223.76 23.4972 223.764 23.4876 223.772 23.4804C223.779 23.4733 223.788 23.4693 223.799 23.4693H226.742C227.274 23.5498 227.759 23.8181 228.11 24.2255C228.461 24.6328 228.654 25.1523 228.654 25.6895C228.654 26.2268 228.461 26.7462 228.11 27.1535C227.759 27.5609 227.274 27.8292 226.742 27.9098V27.9351Z" fill="#184554"/>
<path d="M244.8 30.7707C244.796 30.7677 244.793 30.7639 244.79 30.7595C244.788 30.7551 244.787 30.7502 244.787 30.7453C244.787 30.7404 244.788 30.7355 244.79 30.7311C244.793 30.7267 244.796 30.7228 244.8 30.7199C245.474 30.3941 246.076 29.9362 246.569 29.3734C247.062 28.8107 247.437 28.1546 247.671 27.4442C247.904 26.7339 247.992 25.9838 247.929 25.2388C247.866 24.4937 247.654 23.7689 247.304 23.1077C246.735 22.0818 245.898 21.2295 244.881 20.6418C243.865 20.0541 242.707 19.7531 241.533 19.771H235.094C235.084 19.771 235.074 19.775 235.067 19.7821C235.06 19.7893 235.056 19.799 235.056 19.8091V37.0888C235.056 37.0989 235.06 37.1086 235.067 37.1158C235.074 37.1229 235.084 37.1269 235.094 37.1269H238.99C239 37.1269 239.01 37.1229 239.017 37.1158C239.024 37.1086 239.028 37.0989 239.028 37.0888V31.4621C239.028 31.452 239.032 31.4423 239.039 31.4352C239.047 31.428 239.056 31.424 239.066 31.424H240.891C240.896 31.4207 240.903 31.419 240.91 31.419C240.916 31.419 240.923 31.4207 240.929 31.424L244.183 37.0888C244.189 37.0922 244.196 37.0939 244.202 37.0939C244.209 37.0939 244.216 37.0922 244.221 37.0888H248.423C248.427 37.0852 248.43 37.0809 248.432 37.076C248.435 37.071 248.436 37.0656 248.436 37.0602C248.436 37.0548 248.435 37.0495 248.432 37.0446C248.43 37.0397 248.427 37.0353 248.423 37.0317L244.8 30.7707ZM242.022 27.9351H239.079C239.069 27.9351 239.059 27.9311 239.052 27.9239C239.045 27.9168 239.041 27.9072 239.041 27.8971V23.5073C239.041 23.4972 239.045 23.4876 239.052 23.4804C239.059 23.4733 239.069 23.4693 239.079 23.4693H242.022C242.554 23.5498 243.04 23.8181 243.391 24.2255C243.742 24.6328 243.935 25.1523 243.935 25.6895C243.935 26.2268 243.742 26.7462 243.391 27.1535C243.04 27.5609 242.554 27.8292 242.022 27.9098V27.9351Z" fill="#184554"/>
<path d="M254.283 19.752H250.387C250.366 19.752 250.349 19.769 250.349 19.7901V37.0698C250.349 37.0908 250.366 37.1079 250.387 37.1079H254.283C254.304 37.1079 254.321 37.0908 254.321 37.0698V19.7901C254.321 19.769 254.304 19.752 254.283 19.752Z" fill="#184554"/>
<path d="M265.585 19.4031C263.796 19.4031 262.047 19.9325 260.56 20.9244C259.072 21.9163 257.913 23.3261 257.228 24.9755C256.544 26.625 256.365 28.4399 256.714 30.191C257.063 31.942 257.924 33.5504 259.189 34.8129C260.454 36.0753 262.066 36.935 263.82 37.2833C265.575 37.6316 267.393 37.4529 269.046 36.7697C270.699 36.0864 272.112 34.9294 273.105 33.445C274.099 31.9605 274.63 30.2153 274.63 28.4299C274.64 27.2417 274.413 26.0633 273.962 24.9635C273.511 23.8638 272.845 22.8646 272.003 22.0244C271.161 21.1841 270.16 20.5196 269.058 20.0696C267.956 19.6196 266.775 19.393 265.585 19.4031ZM265.585 33.5872C264.559 33.6036 263.552 33.3151 262.692 32.7584C261.831 32.2018 261.156 31.4022 260.752 30.4614C260.348 29.5206 260.234 28.4811 260.424 27.4753C260.614 26.4695 261.099 25.5429 261.819 24.8134C262.538 24.0838 263.459 23.5844 264.463 23.3787C265.468 23.1729 266.511 23.2701 267.46 23.6579C268.409 24.0457 269.221 24.7065 269.793 25.5563C270.364 26.4061 270.67 27.4064 270.67 28.4299C270.701 29.1084 270.591 29.7859 270.348 30.4201C270.104 31.0543 269.732 31.6315 269.255 32.1156C268.777 32.5997 268.205 32.9803 267.574 33.2335C266.942 33.4867 266.265 33.6071 265.585 33.5872Z" fill="#184554"/>
<path d="M312.621 33.9742C313.973 33.9742 315.068 33.0284 315.068 31.8618C315.068 30.6951 313.973 29.7494 312.621 29.7494C311.27 29.7494 310.174 30.6951 310.174 31.8618C310.174 33.0284 311.27 33.9742 312.621 33.9742Z" fill="#184554"/>
<path d="M312.621 26.6284C313.639 26.6284 314.465 25.8615 314.465 24.9156C314.465 23.9697 313.639 23.2029 312.621 23.2029C311.603 23.2029 310.778 23.9697 310.778 24.9156C310.778 25.8615 311.603 26.6284 312.621 26.6284Z" fill="#184554"/>
<path d="M322.683 9.29156C318.005 4.62289 311.66 2 305.045 2C298.429 2 292.084 4.62289 287.406 9.29156C282.728 13.9602 280.1 20.2923 280.1 26.8948C280.1 33.4973 282.728 39.8294 287.406 44.4981L304.994 61.9871C304.997 61.9912 305.002 61.9944 305.007 61.9967C305.012 61.9989 305.017 62 305.022 62C305.028 62 305.033 61.9989 305.038 61.9967C305.043 61.9944 305.047 61.9912 305.051 61.9871L322.664 44.4093C324.987 42.1109 326.831 39.3764 328.09 36.3635C329.349 33.3506 329.998 30.1188 330 26.8543C330.002 23.5899 329.356 20.3574 328.1 17.3432C326.845 14.3289 325.004 11.5925 322.683 9.29156ZM298.142 37.7613C293.978 37.7613 291.658 35.6679 291.658 32.4454C291.646 31.6118 291.847 30.7889 292.242 30.0542C292.637 29.3195 293.212 28.6972 293.915 28.246C293.919 28.2419 293.922 28.2369 293.925 28.2314C293.927 28.226 293.928 28.2202 293.928 28.2143C293.928 28.2083 293.927 28.2025 293.925 28.1971C293.922 28.1916 293.919 28.1866 293.915 28.1825C293.382 27.7681 292.955 27.2336 292.668 26.6228C292.382 26.012 292.245 25.3422 292.268 24.6682C292.268 21.2427 294.887 19.4285 298.142 19.4285C301.396 19.4285 304.021 21.2427 304.021 24.6682C304.043 25.3426 303.905 26.0125 303.618 26.6233C303.33 27.2341 302.902 27.7684 302.369 28.1825C302.363 28.186 302.359 28.1907 302.356 28.1962C302.353 28.2017 302.352 28.208 302.352 28.2143C302.352 28.2205 302.353 28.2267 302.356 28.2322C302.359 28.2378 302.363 28.2425 302.369 28.246C303.07 28.6975 303.645 29.32 304.039 30.0547C304.432 30.7895 304.632 31.6123 304.619 32.4454C304.625 35.6679 302.305 37.7613 298.142 37.7613ZM312.621 37.7613C308.464 37.7613 306.138 35.6679 306.138 32.4454C306.126 31.6118 306.327 30.7889 306.721 30.0542C307.116 29.3195 307.692 28.6972 308.394 28.246C308.399 28.2419 308.402 28.2369 308.404 28.2314C308.407 28.226 308.408 28.2202 308.408 28.2143C308.408 28.2083 308.407 28.2025 308.404 28.1971C308.402 28.1916 308.399 28.1866 308.394 28.1825C307.861 27.7684 307.433 27.2341 307.145 26.6233C306.858 26.0125 306.72 25.3426 306.742 24.6682C306.742 21.2427 309.367 19.4285 312.621 19.4285C315.876 19.4285 318.501 21.2427 318.501 24.6682C318.524 25.3428 318.387 26.0133 318.099 26.6243C317.812 27.2354 317.383 27.7695 316.848 28.1825C316.843 28.186 316.839 28.1907 316.836 28.1962C316.833 28.2017 316.831 28.208 316.831 28.2143C316.831 28.2205 316.833 28.2267 316.836 28.2322C316.839 28.2378 316.843 28.2425 316.848 28.246C317.55 28.6975 318.125 29.32 318.518 30.0547C318.912 30.7895 319.112 31.6123 319.098 32.4454C319.105 35.6679 316.785 37.7613 312.621 37.7613Z" fill="#184554"/>
<path d="M298.142 33.9742C299.493 33.9742 300.589 33.0284 300.589 31.8618C300.589 30.6951 299.493 29.7494 298.142 29.7494C296.79 29.7494 295.694 30.6951 295.694 31.8618C295.694 33.0284 296.79 33.9742 298.142 33.9742Z" fill="#184554"/>
<path d="M298.142 26.6284C299.16 26.6284 299.985 25.8615 299.985 24.9156C299.985 23.9697 299.16 23.2029 298.142 23.2029C297.124 23.2029 296.298 23.9697 296.298 24.9156C296.298 25.8615 297.124 26.6284 298.142 26.6284Z" fill="#184554"/>
<defs>
<linearGradient id="paint0_linear_4_317" x1="57.4532" y1="6.44379e-07" x2="46.6928" y2="79.4857" gradientUnits="userSpaceOnUse">
<stop stop-color="#4B898C"/>
<stop offset="1" stop-color="#ADDADD"/>
</linearGradient>
<linearGradient id="paint1_linear_4_317" x1="57.4532" y1="6.44379e-07" x2="46.6928" y2="79.4857" gradientUnits="userSpaceOnUse">
<stop stop-color="#4B898C"/>
<stop offset="1" stop-color="#ADDADD"/>
</linearGradient>
<linearGradient id="paint2_linear_4_317" x1="57.4532" y1="6.44379e-07" x2="46.6928" y2="79.4857" gradientUnits="userSpaceOnUse">
<stop stop-color="#4B898C"/>
<stop offset="1" stop-color="#ADDADD"/>
</linearGradient>
<linearGradient id="paint3_linear_4_317" x1="57.4532" y1="6.44379e-07" x2="46.6928" y2="79.4857" gradientUnits="userSpaceOnUse">
<stop stop-color="#4B898C"/>
<stop offset="1" stop-color="#ADDADD"/>
</linearGradient>
<linearGradient id="paint4_linear_4_317" x1="57.4532" y1="6.44379e-07" x2="46.6928" y2="79.4857" gradientUnits="userSpaceOnUse">
<stop stop-color="#4B898C"/>
<stop offset="1" stop-color="#ADDADD"/>
</linearGradient>
<linearGradient id="paint5_linear_4_317" x1="57.4532" y1="6.44379e-07" x2="46.6928" y2="79.4857" gradientUnits="userSpaceOnUse">
<stop stop-color="#4B898C"/>
<stop offset="1" stop-color="#ADDADD"/>
</linearGradient>
<linearGradient id="paint6_linear_4_317" x1="57.4532" y1="6.44379e-07" x2="46.6928" y2="79.4857" gradientUnits="userSpaceOnUse">
<stop stop-color="#4B898C"/>
<stop offset="1" stop-color="#ADDADD"/>
</linearGradient>
</defs>
</svg>
