<svg width="18" height="16" viewBox="0 0 18 16" fill="none" xmlns="http://www.w3.org/2000/svg">
<path d="M0 13.73C1.86242 13.9027 3.72339 13.3845 5.23558 12.2723C5.1075 12.1599 4.94358 12.0978 4.77395 12.0974C4.1922 12.0047 3.64148 11.7705 3.16913 11.4149C2.69679 11.0594 2.31696 10.5933 2.0624 10.0565C1.8749 9.69208 1.9327 9.63388 2.35097 9.6193C2.68242 9.65899 3.01836 9.61892 3.33164 9.50257C3.2035 9.37036 3.03664 9.28356 2.85574 9.25487C2.27101 9.01583 1.75693 8.62877 1.3629 8.13097C0.968874 7.63317 0.708047 7.04124 0.605657 6.4122C0.490272 5.87284 0.605797 5.80006 1.11061 5.97499C1.41823 6.1136 1.76022 6.15421 2.09128 6.09154C1.69721 5.7891 1.36436 5.41299 1.11061 4.98365C0.801405 4.47659 0.618745 3.90112 0.578543 3.30688C0.538341 2.71264 0.641754 2.11751 0.879787 1.57262C1.03844 1.17904 1.11053 1.16438 1.399 1.48508C3.14321 3.49831 5.57383 4.77359 8.20665 5.05661C8.68261 5.05661 8.78358 5.05665 8.75473 4.54644C8.70708 4.01212 8.77678 3.47364 8.95879 2.96967C9.14079 2.4657 9.43058 2.00866 9.80759 1.63099C10.4669 0.948837 11.3581 0.54523 12.3006 0.501929C13.2432 0.458628 14.1667 0.778817 14.8845 1.3977C14.9943 1.51191 15.1359 1.58979 15.2904 1.62103C15.4449 1.65226 15.6051 1.63536 15.7499 1.57262C16.3531 1.37885 16.9414 1.14011 17.5096 0.858353C17.2605 1.5927 16.8224 2.24667 16.2404 2.75329C16.8427 2.70857 17.4353 2.57615 18 2.35985C17.6199 2.97872 17.1311 3.52211 16.5577 3.96332C16.4378 4.043 16.342 4.15457 16.2809 4.28575C16.2198 4.41694 16.1959 4.56265 16.2115 4.70677C16.2332 7.18293 15.402 9.58949 13.8606 11.5142C13.062 12.5792 12.059 13.4703 10.9115 14.1341C9.76402 14.7979 8.4957 15.2208 7.18266 15.3772C4.88579 15.7331 2.53668 15.3239 0.490335 14.2112C0.28091 14.1069 0.109372 13.9385 0 13.73Z" fill="white"/>
</svg>
