<svg width="17" height="18" viewBox="0 0 17 18" fill="none" xmlns="http://www.w3.org/2000/svg">
<path d="M0.00748698 0.5H16.8349C16.9604 0.5 16.9919 0.499962 16.9919 0.656788V17.4999H11.8951C11.7226 17.4999 11.7069 17.5001 11.7069 17.2806V11.1486C11.7069 10.929 11.7067 10.9133 11.942 10.9133H13.7298C13.871 10.9133 13.918 10.9133 13.9337 10.7408C14.0278 9.98805 14.1377 9.17249 14.2318 8.51381C14.2318 8.27857 14.2317 8.27873 14.0122 8.27873H11.9106C11.7694 8.27873 11.7069 8.27872 11.7069 8.07485V6.50658C11.6999 6.37159 11.7216 6.23666 11.7706 6.11068C11.8196 5.98471 11.8947 5.8705 11.991 5.77567C12.0873 5.68084 12.2025 5.60752 12.3292 5.56049C12.456 5.51346 12.5912 5.49382 12.7261 5.50287H14.0905C14.2473 5.50287 14.3101 5.50286 14.3101 5.29899C14.3101 4.64031 14.3101 3.99734 14.3101 3.35435C14.3101 3.15048 14.31 3.11907 14.0905 3.11907H12.0048C11.8068 3.0951 11.6067 3.0951 11.4088 3.11907C10.7502 3.25874 10.1592 3.61963 9.7341 4.14174C9.309 4.66385 9.07537 5.31565 9.07211 5.98893V8.02775C9.07211 8.24731 9.07207 8.26303 8.83683 8.26303H7.06468C6.90786 8.26303 6.8608 8.26286 6.8608 8.48242V10.7094C6.8608 10.9133 6.86082 10.9133 7.08038 10.9133H8.80543C9.07204 10.9133 9.07211 10.9134 9.07211 11.1957V17.2178C9.07211 17.5001 9.07202 17.4999 8.78974 17.4999H0.336953C0.00761716 17.4999 0.00748698 17.5 0.00748698 17.1707V0.750976C0.00020006 0.667494 0.00020006 0.583482 0.00748698 0.5Z" fill="#184554"/>
</svg>
