<svg width="19" height="18" viewBox="0 0 19 18" fill="none" xmlns="http://www.w3.org/2000/svg">
<path d="M17.994 5.01395C17.9962 4.3539 17.8676 3.69996 17.6156 3.08992C17.3636 2.47989 16.9932 1.92586 16.5258 1.45988C16.0584 0.993894 15.5033 0.625199 14.8925 0.375105C14.2818 0.12501 13.6275 -0.00152122 12.9675 0.00282874C11.6417 -0.00353593 10.3159 0.00282874 8.99222 0.00282874C7.66852 0.00282874 6.34059 -0.00353593 5.01795 0.00282874C4.35789 0.000712952 3.70394 0.12944 3.09391 0.381573C2.48388 0.633706 1.92987 1.00424 1.46387 1.47178C0.99787 1.93931 0.629133 2.49457 0.378965 3.10547C0.128797 3.71637 0.00215627 4.37079 0.00636392 5.03092C-0.00212131 7.68075 -0.00212131 10.3309 0.00636392 12.9815C0.00396743 13.6415 0.132416 14.2955 0.384286 14.9056C0.636157 15.5156 1.00645 16.0697 1.47376 16.5358C1.94107 17.0019 2.49613 17.3707 3.10683 17.621C3.71754 17.8712 4.37178 17.9978 5.03174 17.9936C7.68125 18.0021 10.3329 18.0021 12.9866 17.9936C13.6468 17.9956 14.3008 17.8668 14.9109 17.6145C15.521 17.3623 16.0751 16.9917 16.5411 16.5241C17.0072 16.0565 17.376 15.5011 17.6263 14.8902C17.8766 14.2792 18.0034 13.6247 17.9993 12.9645C18.0042 10.3147 18.0025 7.66448 17.994 5.01395ZM15.9098 12.8637C15.9098 14.6469 14.6519 15.8986 12.87 15.905C11.5802 15.905 10.2905 15.905 9.0007 15.905C7.71094 15.905 6.42119 15.905 5.13144 15.905C3.34954 15.8986 2.09584 14.6469 2.0916 12.8648C2.08665 10.285 2.08665 7.70373 2.0916 5.12108C2.0916 3.33792 3.34848 2.08408 5.13144 2.07983C7.71094 2.07418 10.2919 2.07418 12.8742 2.07983C14.6572 2.07983 15.9109 3.33792 15.9151 5.12002C15.9172 7.70549 15.9155 10.2878 15.9098 12.8669V12.8637Z" fill="#184554"/>
<path d="M9.01871 4.98246C8.22417 4.97889 7.44645 5.2112 6.784 5.64997C6.12156 6.08874 5.60419 6.71423 5.29742 7.44726C4.99064 8.18028 4.90826 8.98786 5.06069 9.76774C5.21312 10.5476 5.59352 11.2647 6.15371 11.8283C6.7139 12.3918 7.42868 12.7764 8.20757 12.9334C8.98646 13.0904 9.79441 13.0127 10.5291 12.7101C11.2638 12.4076 11.8923 11.8938 12.3348 11.2339C12.7774 10.5739 13.0142 9.79745 13.0152 9.00281C13.0193 8.47569 12.9189 7.95298 12.7198 7.46489C12.5207 6.97681 12.2268 6.53303 11.8552 6.1592C11.4836 5.78537 11.0416 5.4889 10.5547 5.28692C10.0678 5.08495 9.54579 4.98147 9.01871 4.98246ZM8.95614 10.9228C8.57572 10.914 8.2064 10.7929 7.89463 10.5747C7.58286 10.3565 7.34257 10.051 7.20398 9.69657C7.06538 9.34214 7.03468 8.95464 7.11573 8.58281C7.19677 8.21098 7.38594 7.87142 7.65946 7.60684C7.93297 7.34226 8.2786 7.16448 8.65288 7.09585C9.02717 7.02723 9.41339 7.07083 9.76296 7.22117C10.1125 7.37151 10.4098 7.62188 10.6175 7.94078C10.8251 8.25968 10.9339 8.63287 10.93 9.01342C10.9307 9.27006 10.8797 9.52421 10.78 9.76069C10.6803 9.99717 10.5339 10.2111 10.3497 10.3897C10.1654 10.5684 9.94706 10.708 9.70762 10.8003C9.46819 10.8927 9.2126 10.9358 8.95614 10.9271V10.9228Z" fill="#184554"/>
<path d="M13.5063 3.49846C13.2311 3.49072 12.964 3.59207 12.7631 3.78043C12.5623 3.96879 12.444 4.22889 12.434 4.50408C12.4404 4.77923 12.5509 5.04171 12.7432 5.23857C12.9356 5.43544 13.1954 5.55204 13.4703 5.56486C13.7366 5.56081 13.9914 5.45527 14.1826 5.26977C14.3738 5.08427 14.487 4.8328 14.4991 4.56666C14.5074 4.43054 14.488 4.29413 14.4421 4.16573C14.3961 4.03732 14.3245 3.9196 14.2317 3.8197C14.1388 3.71981 14.0267 3.63983 13.902 3.5846C13.7773 3.52938 13.6427 3.50007 13.5063 3.49846Z" fill="#184554"/>
</svg>
