<svg width="18" height="18" viewBox="0 0 18 18" fill="none" xmlns="http://www.w3.org/2000/svg">
<path d="M0.510501 0.5H17.338C17.4634 0.5 17.4949 0.499962 17.4949 0.656788V17.4999H12.3981C12.2256 17.4999 12.2099 17.5001 12.2099 17.2806V11.1486C12.2099 10.929 12.2097 10.9133 12.445 10.9133H14.2328C14.374 10.9133 14.421 10.9133 14.4367 10.7408C14.5308 9.98805 14.6407 9.17249 14.7348 8.51381C14.7348 8.27857 14.7348 8.27873 14.5152 8.27873H12.4136C12.2724 8.27873 12.2099 8.27872 12.2099 8.07485V6.50658C12.2029 6.37159 12.2247 6.23666 12.2736 6.11068C12.3226 5.98471 12.3977 5.8705 12.494 5.77567C12.5903 5.68084 12.7055 5.60752 12.8323 5.56049C12.959 5.51346 13.0942 5.49382 13.2291 5.50287H14.5935C14.7503 5.50287 14.8131 5.50286 14.8131 5.29899C14.8131 4.64031 14.8131 3.99734 14.8131 3.35435C14.8131 3.15048 14.8131 3.11907 14.5935 3.11907H12.5078C12.3098 3.0951 12.1097 3.0951 11.9118 3.11907C11.2532 3.25874 10.6622 3.61963 10.2371 4.14174C9.81201 4.66385 9.57838 5.31565 9.57512 5.98893V8.02775C9.57512 8.24731 9.57508 8.26303 9.33984 8.26303H7.5677C7.41087 8.26303 7.36381 8.26286 7.36381 8.48242V10.7094C7.36381 10.9133 7.36384 10.9133 7.58339 10.9133H9.30845C9.57505 10.9133 9.57512 10.9134 9.57512 11.1957V17.2178C9.57512 17.5001 9.57504 17.4999 9.29275 17.4999H0.839967C0.510631 17.4999 0.510501 17.5 0.510501 17.1707V0.750976C0.503214 0.667494 0.503214 0.583482 0.510501 0.5Z" fill="white"/>
</svg>
