<svg width="19" height="16" viewBox="0 0 19 16" fill="none" xmlns="http://www.w3.org/2000/svg">
<path d="M0.991928 13.73C2.85435 13.9027 4.71532 13.3845 6.22751 12.2723C6.09942 12.1599 5.93551 12.0978 5.76588 12.0974C5.18413 12.0047 4.63341 11.7705 4.16106 11.4149C3.68872 11.0594 3.30889 10.5933 3.05433 10.0565C2.86683 9.69208 2.92463 9.63388 3.3429 9.6193C3.67434 9.65899 4.01028 9.61892 4.32357 9.50257C4.19543 9.37036 4.02857 9.28356 3.84767 9.25487C3.26294 9.01583 2.74886 8.62877 2.35483 8.13097C1.9608 7.63317 1.69998 7.04124 1.59758 6.4122C1.4822 5.87284 1.59773 5.80006 2.10253 5.97499C2.41016 6.1136 2.75215 6.15421 3.0832 6.09154C2.68913 5.7891 2.35628 5.41299 2.10253 4.98365C1.79333 4.47659 1.61067 3.90112 1.57047 3.30688C1.53027 2.71264 1.63368 2.11751 1.87171 1.57262C2.03037 1.17904 2.10246 1.16438 2.39092 1.48508C4.13514 3.49831 6.56576 4.77359 9.19858 5.05661C9.67454 5.05661 9.77551 5.05665 9.74666 4.54644C9.69901 4.01212 9.76871 3.47364 9.95072 2.96967C10.1327 2.4657 10.4225 2.00866 10.7995 1.63099C11.4588 0.948837 12.35 0.54523 13.2926 0.501929C14.2351 0.458628 15.1586 0.778817 15.8765 1.3977C15.9863 1.51191 16.1278 1.58979 16.2823 1.62103C16.4368 1.65226 16.597 1.63536 16.7418 1.57262C17.345 1.37885 17.9333 1.14011 18.5016 0.858353C18.2524 1.5927 17.8143 2.24667 17.2323 2.75329C17.8346 2.70857 18.4272 2.57615 18.9919 2.35985C18.6118 2.97872 18.123 3.52211 17.5496 3.96332C17.4298 4.043 17.3339 4.15457 17.2728 4.28575C17.2117 4.41694 17.1878 4.56265 17.2035 4.70677C17.2251 7.18293 16.3939 9.58949 14.8525 11.5142C14.0539 12.5792 13.0509 13.4703 11.9034 14.1341C10.756 14.7979 9.48763 15.2208 8.17459 15.3772C5.87771 15.7331 3.52861 15.3239 1.48226 14.2112C1.27284 14.1069 1.1013 13.9385 0.991928 13.73Z" fill="#184554"/>
</svg>
