<svg width="18" height="18" viewBox="0 0 18 18" fill="none" xmlns="http://www.w3.org/2000/svg">
<path d="M17.993 5.01395C17.9952 4.3539 17.8666 3.69996 17.6146 3.08992C17.3626 2.47989 16.9922 1.92586 16.5248 1.45988C16.0574 0.993894 15.5023 0.625199 14.8915 0.375105C14.2808 0.12501 13.6265 -0.00152122 12.9665 0.00282874C11.6407 -0.00353593 10.3149 0.00282874 8.99121 0.00282874C7.66751 0.00282874 6.33958 -0.00353593 5.01694 0.00282874C4.35688 0.000712952 3.70293 0.12944 3.0929 0.381573C2.48288 0.633706 1.92886 1.00424 1.46286 1.47178C0.996863 1.93931 0.628126 2.49457 0.377958 3.10547C0.127789 3.71637 0.00114919 4.37079 0.00535684 5.03092C-0.00312839 7.68075 -0.00312839 10.3309 0.00535684 12.9815C0.00296035 13.6415 0.131408 14.2955 0.383279 14.9056C0.63515 15.5156 1.00544 16.0697 1.47275 16.5358C1.94006 17.0019 2.49512 17.3707 3.10583 17.621C3.71653 17.8712 4.37078 17.9978 5.03073 17.9936C7.68024 18.0021 10.3319 18.0021 12.9856 17.9936C13.6458 17.9956 14.2998 17.8668 14.9099 17.6145C15.52 17.3623 16.0741 16.9917 16.5401 16.5241C17.0062 16.0565 17.375 15.5011 17.6253 14.8902C17.8756 14.2792 18.0023 13.6247 17.9983 12.9645C18.0032 10.3147 18.0015 7.66448 17.993 5.01395ZM15.9088 12.8637C15.9088 14.6469 14.6508 15.8986 12.8689 15.905C11.5792 15.905 10.2894 15.905 8.99969 15.905C7.70993 15.905 6.42018 15.905 5.13043 15.905C3.34853 15.8986 2.09483 14.6469 2.09059 12.8648C2.08564 10.285 2.08564 7.70373 2.09059 5.12108C2.09059 3.33792 3.34747 2.08408 5.13043 2.07983C7.70994 2.07418 10.2909 2.07418 12.8732 2.07983C14.6562 2.07983 15.9099 3.33792 15.9141 5.12002C15.9162 7.70549 15.9144 10.2878 15.9088 12.8669V12.8637Z" fill="white"/>
<path d="M9.01771 4.98246C8.22317 4.97889 7.44544 5.2112 6.783 5.64997C6.12055 6.08874 5.60319 6.71423 5.29641 7.44726C4.98964 8.18028 4.90725 8.98786 5.05968 9.76774C5.21211 10.5476 5.59251 11.2647 6.1527 11.8283C6.71289 12.3918 7.42768 12.7764 8.20656 12.9334C8.98545 13.0904 9.79341 13.0127 10.5281 12.7101C11.2628 12.4076 11.8912 11.8938 12.3338 11.2339C12.7764 10.5739 13.0132 9.79745 13.0142 9.00281C13.0183 8.47569 12.9179 7.95298 12.7188 7.46489C12.5197 6.97681 12.2258 6.53303 11.8542 6.1592C11.4826 5.78537 11.0406 5.4889 10.5537 5.28692C10.0668 5.08495 9.54479 4.98147 9.01771 4.98246ZM8.95513 10.9228C8.57471 10.914 8.20539 10.7929 7.89363 10.5747C7.58186 10.3565 7.34156 10.051 7.20297 9.69657C7.06438 9.34214 7.03368 8.95464 7.11472 8.58281C7.19577 8.21098 7.38493 7.87142 7.65845 7.60684C7.93196 7.34226 8.2776 7.16448 8.65188 7.09585C9.02616 7.02723 9.41238 7.07083 9.76195 7.22117C10.1115 7.37151 10.4088 7.62188 10.6165 7.94078C10.8241 8.25968 10.9329 8.63287 10.929 9.01342C10.9297 9.27006 10.8787 9.52421 10.779 9.76069C10.6793 9.99717 10.5329 10.2111 10.3487 10.3897C10.1644 10.5684 9.94605 10.708 9.70661 10.8003C9.46718 10.8927 9.2116 10.9358 8.95513 10.9271V10.9228Z" fill="white"/>
<path d="M13.5053 3.49846C13.2301 3.49072 12.9629 3.59207 12.7621 3.78043C12.5612 3.96879 12.4429 4.22889 12.433 4.50408C12.4394 4.77923 12.5499 5.04171 12.7422 5.23857C12.9345 5.43544 13.1943 5.55204 13.4692 5.56486C13.7356 5.56081 13.9904 5.45527 14.1815 5.26977C14.3727 5.08427 14.486 4.8328 14.4981 4.56666C14.5064 4.43054 14.487 4.29413 14.4411 4.16573C14.3951 4.03732 14.3235 3.9196 14.2307 3.8197C14.1378 3.71981 14.0257 3.63983 13.901 3.5846C13.7763 3.52938 13.6417 3.50007 13.5053 3.49846Z" fill="white"/>
</svg>
